# xmcd
#
# Track frame offsets: 
#        151
#        20417
#        44906
#        67303
#        100116
#        122893
#        142198
#        168257
#        188762
#        208817
#        227828
#        251327
#
# Disc length: 3644 seconds
#
# Revision: 0
# Processed by: cddbd v1.5.2PL0 Copyright (c) Steve Scherf et al.
# Submitted via: ExactAudioCopy v0.95b4
#
DISCID=b60e3a0c
DTITLE=Samina Chowdhury - Phool Fote Phoool Jhore
DYEAR=2006
DGENRE=Classical
TTITLE0=Amar Buker Modhekhaney
TTITLE1=Phool Fote Phoool Jhore
TTITLE2=Ekbar Jodi Keou
TTITLE3=Eai Jaduta
TTITLE4=Deyale Rakhine
TTITLE5=Amar Garur Garite
TTITLE6=Bashee Amar Beje Beje
TTITLE7=Ami Anutapta
TTITLE8=Jantam Shob Dosh
TTITLE9=Oora Bole
TTITLE10=Amar Buker Modhekhaney
TTITLE11=Chandra Shurja Shobe Achey
EXTD=
EXTT0=
EXTT1=
EXTT2=
EXTT3=
EXTT4=
EXTT5=
EXTT6=
EXTT7=
EXTT8=
EXTT9=
EXTT10=
EXTT11=
PLAYORDER=
